<mxfile host="app.diagrams.net" modified="2021-03-08T15:51:45.569Z" agent="5.0 (Windows NT 10.0; Win64; x64) AppleWebKit/537.36 (KHTML, like Gecko) Chrome/88.0.4324.182 Safari/537.36" etag="f0XJ_cGdCLUABtc1rgbn" version="14.4.4" type="github">
  <diagram id="C5RBs43oDa-KdzZeNtuy" name="Page-1">
    <mxGraphModel dx="1609" dy="1638" grid="1" gridSize="10" guides="1" tooltips="1" connect="1" arrows="1" fold="1" page="1" pageScale="1" pageWidth="827" pageHeight="1169" math="0" shadow="0">
      <root>
        <mxCell id="WIyWlLk6GJQsqaUBKTNV-0" />
        <mxCell id="WIyWlLk6GJQsqaUBKTNV-1" parent="WIyWlLk6GJQsqaUBKTNV-0" />
        <mxCell id="WIyWlLk6GJQsqaUBKTNV-3" value="When a new response is submitted" style="whiteSpace=wrap;html=1;fontSize=12;glass=0;strokeWidth=1;shadow=0;rounded=1;" parent="WIyWlLk6GJQsqaUBKTNV-1" vertex="1">
          <mxGeometry x="303.25" y="-270" width="200" height="40" as="geometry" />
        </mxCell>
        <mxCell id="FX12IVZ7UqzFeH-IZBvV-1" value="Get email list from SharePoint list (Rolodox)" style="whiteSpace=wrap;html=1;rounded=1;" parent="WIyWlLk6GJQsqaUBKTNV-1" vertex="1">
          <mxGeometry x="276.13" y="-210" width="254" height="40" as="geometry" />
        </mxCell>
        <mxCell id="gPxFWxlJRxJoS_Nw_sLM-30" style="edgeStyle=orthogonalEdgeStyle;rounded=0;orthogonalLoop=1;jettySize=auto;html=1;exitX=0.5;exitY=1;exitDx=0;exitDy=0;entryX=0.5;entryY=0;entryDx=0;entryDy=0;" parent="WIyWlLk6GJQsqaUBKTNV-1" source="FX12IVZ7UqzFeH-IZBvV-2" target="gPxFWxlJRxJoS_Nw_sLM-6" edge="1">
          <mxGeometry relative="1" as="geometry" />
        </mxCell>
        <mxCell id="FX12IVZ7UqzFeH-IZBvV-2" value="Get response details" style="whiteSpace=wrap;html=1;rounded=1;" parent="WIyWlLk6GJQsqaUBKTNV-1" vertex="1">
          <mxGeometry x="328.76" y="-150" width="150" height="30" as="geometry" />
        </mxCell>
        <mxCell id="FX12IVZ7UqzFeH-IZBvV-9" value="" style="endArrow=classic;html=1;entryX=0.5;entryY=0;entryDx=0;entryDy=0;" parent="WIyWlLk6GJQsqaUBKTNV-1" source="WIyWlLk6GJQsqaUBKTNV-3" target="FX12IVZ7UqzFeH-IZBvV-1" edge="1">
          <mxGeometry width="50" height="50" relative="1" as="geometry">
            <mxPoint x="369.25" y="20" as="sourcePoint" />
            <mxPoint x="419.25" y="-30" as="targetPoint" />
          </mxGeometry>
        </mxCell>
        <mxCell id="FX12IVZ7UqzFeH-IZBvV-11" value="" style="endArrow=classic;html=1;entryX=0.5;entryY=0;entryDx=0;entryDy=0;exitX=0.5;exitY=1;exitDx=0;exitDy=0;" parent="WIyWlLk6GJQsqaUBKTNV-1" source="FX12IVZ7UqzFeH-IZBvV-1" target="FX12IVZ7UqzFeH-IZBvV-2" edge="1">
          <mxGeometry width="50" height="50" relative="1" as="geometry">
            <mxPoint x="369.25" y="20" as="sourcePoint" />
            <mxPoint x="419.25" y="-30" as="targetPoint" />
          </mxGeometry>
        </mxCell>
        <mxCell id="FX12IVZ7UqzFeH-IZBvV-35" style="edgeStyle=elbowEdgeStyle;orthogonalLoop=1;jettySize=auto;html=1;exitX=0.5;exitY=1;exitDx=0;exitDy=0;entryX=0.5;entryY=0;entryDx=0;entryDy=0;" parent="WIyWlLk6GJQsqaUBKTNV-1" source="FX12IVZ7UqzFeH-IZBvV-13" target="FX12IVZ7UqzFeH-IZBvV-16" edge="1">
          <mxGeometry relative="1" as="geometry" />
        </mxCell>
        <mxCell id="FX12IVZ7UqzFeH-IZBvV-13" value="Create arrays of attachments" style="whiteSpace=wrap;html=1;rounded=1;" parent="WIyWlLk6GJQsqaUBKTNV-1" vertex="1">
          <mxGeometry x="327.38" y="180" width="171" height="30" as="geometry" />
        </mxCell>
        <mxCell id="FX12IVZ7UqzFeH-IZBvV-30" style="edgeStyle=elbowEdgeStyle;orthogonalLoop=1;jettySize=auto;html=1;exitX=0.5;exitY=1;exitDx=0;exitDy=0;entryX=0.5;entryY=0;entryDx=0;entryDy=0;" parent="WIyWlLk6GJQsqaUBKTNV-1" source="FX12IVZ7UqzFeH-IZBvV-14" target="WIyWlLk6GJQsqaUBKTNV-3" edge="1">
          <mxGeometry relative="1" as="geometry" />
        </mxCell>
        <mxCell id="FX12IVZ7UqzFeH-IZBvV-14" value="Create Microsoft Form" style="whiteSpace=wrap;html=1;rounded=1;" parent="WIyWlLk6GJQsqaUBKTNV-1" vertex="1">
          <mxGeometry x="303.76" y="-320" width="200" height="30" as="geometry" />
        </mxCell>
        <mxCell id="FX12IVZ7UqzFeH-IZBvV-38" style="edgeStyle=elbowEdgeStyle;orthogonalLoop=1;jettySize=auto;html=1;exitX=0.5;exitY=1;exitDx=0;exitDy=0;" parent="WIyWlLk6GJQsqaUBKTNV-1" source="FX12IVZ7UqzFeH-IZBvV-16" target="FX12IVZ7UqzFeH-IZBvV-17" edge="1">
          <mxGeometry relative="1" as="geometry" />
        </mxCell>
        <mxCell id="FX12IVZ7UqzFeH-IZBvV-16" value="Parse JSON (creating attachment elements)" style="whiteSpace=wrap;html=1;rounded=1;" parent="WIyWlLk6GJQsqaUBKTNV-1" vertex="1">
          <mxGeometry x="287.38" y="230" width="252" height="40" as="geometry" />
        </mxCell>
        <mxCell id="FX12IVZ7UqzFeH-IZBvV-44" style="edgeStyle=elbowEdgeStyle;orthogonalLoop=1;jettySize=auto;html=1;exitX=0.5;exitY=1;exitDx=0;exitDy=0;" parent="WIyWlLk6GJQsqaUBKTNV-1" source="FX12IVZ7UqzFeH-IZBvV-17" target="FX12IVZ7UqzFeH-IZBvV-22" edge="1">
          <mxGeometry relative="1" as="geometry" />
        </mxCell>
        <mxCell id="FX12IVZ7UqzFeH-IZBvV-17" value="" style="whiteSpace=wrap;html=1;rounded=1;" parent="WIyWlLk6GJQsqaUBKTNV-1" vertex="1">
          <mxGeometry x="297.38" y="290" width="240" height="100" as="geometry" />
        </mxCell>
        <mxCell id="FX12IVZ7UqzFeH-IZBvV-19" value="Get file content" style="whiteSpace=wrap;html=1;rounded=1;" parent="WIyWlLk6GJQsqaUBKTNV-1" vertex="1">
          <mxGeometry x="338.38" y="300" width="158" height="30" as="geometry" />
        </mxCell>
        <mxCell id="FX12IVZ7UqzFeH-IZBvV-20" value="Add attachment elements to array" style="whiteSpace=wrap;html=1;rounded=1;" parent="WIyWlLk6GJQsqaUBKTNV-1" vertex="1">
          <mxGeometry x="317.88" y="340" width="199" height="40" as="geometry" />
        </mxCell>
        <mxCell id="FX12IVZ7UqzFeH-IZBvV-42" style="edgeStyle=elbowEdgeStyle;orthogonalLoop=1;jettySize=auto;html=1;exitX=0.5;exitY=1;exitDx=0;exitDy=0;entryX=0.5;entryY=0;entryDx=0;entryDy=0;" parent="WIyWlLk6GJQsqaUBKTNV-1" source="FX12IVZ7UqzFeH-IZBvV-22" target="FX12IVZ7UqzFeH-IZBvV-26" edge="1">
          <mxGeometry relative="1" as="geometry" />
        </mxCell>
        <mxCell id="FX12IVZ7UqzFeH-IZBvV-22" value="Populate word document with Form response" style="whiteSpace=wrap;html=1;rounded=1;" parent="WIyWlLk6GJQsqaUBKTNV-1" vertex="1">
          <mxGeometry x="287.38" y="410" width="252" height="40" as="geometry" />
        </mxCell>
        <mxCell id="FX12IVZ7UqzFeH-IZBvV-24" value="" style="html=1;verticalLabelPosition=bottom;align=center;verticalAlign=top;strokeWidth=2;shadow=0;dashed=0;shape=mxgraph.ios7.icons.repeat;pointerEvents=1;rounded=1;" parent="WIyWlLk6GJQsqaUBKTNV-1" vertex="1">
          <mxGeometry x="306.38" y="300" width="21" height="20" as="geometry" />
        </mxCell>
        <mxCell id="FX12IVZ7UqzFeH-IZBvV-25" style="edgeStyle=elbowEdgeStyle;orthogonalLoop=1;jettySize=auto;html=1;exitX=0.5;exitY=0;exitDx=0;exitDy=0;" parent="WIyWlLk6GJQsqaUBKTNV-1" source="WIyWlLk6GJQsqaUBKTNV-3" target="WIyWlLk6GJQsqaUBKTNV-3" edge="1">
          <mxGeometry relative="1" as="geometry" />
        </mxCell>
        <mxCell id="FX12IVZ7UqzFeH-IZBvV-43" style="edgeStyle=elbowEdgeStyle;orthogonalLoop=1;jettySize=auto;html=1;exitX=0.5;exitY=1;exitDx=0;exitDy=0;entryX=0.5;entryY=0;entryDx=0;entryDy=0;" parent="WIyWlLk6GJQsqaUBKTNV-1" source="FX12IVZ7UqzFeH-IZBvV-26" target="FX12IVZ7UqzFeH-IZBvV-28" edge="1">
          <mxGeometry relative="1" as="geometry" />
        </mxCell>
        <mxCell id="FX12IVZ7UqzFeH-IZBvV-26" value="Create file on SharePoint with populated document" style="whiteSpace=wrap;html=1;rounded=1;" parent="WIyWlLk6GJQsqaUBKTNV-1" vertex="1">
          <mxGeometry x="269.38" y="470" width="288" height="40" as="geometry" />
        </mxCell>
        <mxCell id="FX12IVZ7UqzFeH-IZBvV-45" style="edgeStyle=elbowEdgeStyle;orthogonalLoop=1;jettySize=auto;html=1;exitX=0.5;exitY=1;exitDx=0;exitDy=0;entryX=0.5;entryY=0;entryDx=0;entryDy=0;" parent="WIyWlLk6GJQsqaUBKTNV-1" source="FX12IVZ7UqzFeH-IZBvV-28" target="FX12IVZ7UqzFeH-IZBvV-29" edge="1">
          <mxGeometry relative="1" as="geometry">
            <Array as="points">
              <mxPoint x="419.38" y="570" />
            </Array>
          </mxGeometry>
        </mxCell>
        <mxCell id="FX12IVZ7UqzFeH-IZBvV-28" value="Create sharing link for file" style="whiteSpace=wrap;html=1;rounded=1;" parent="WIyWlLk6GJQsqaUBKTNV-1" vertex="1">
          <mxGeometry x="328.38" y="530" width="170" height="40" as="geometry" />
        </mxCell>
        <mxCell id="FX12IVZ7UqzFeH-IZBvV-50" style="edgeStyle=elbowEdgeStyle;orthogonalLoop=1;jettySize=auto;html=1;exitX=0.5;exitY=1;exitDx=0;exitDy=0;" parent="WIyWlLk6GJQsqaUBKTNV-1" source="FX12IVZ7UqzFeH-IZBvV-29" target="FX12IVZ7UqzFeH-IZBvV-46" edge="1">
          <mxGeometry relative="1" as="geometry" />
        </mxCell>
        <mxCell id="FX12IVZ7UqzFeH-IZBvV-29" value="Get user profiles for faculty" style="whiteSpace=wrap;html=1;strokeWidth=1;rounded=1;" parent="WIyWlLk6GJQsqaUBKTNV-1" vertex="1">
          <mxGeometry x="332.51" y="590" width="172" height="40" as="geometry" />
        </mxCell>
        <mxCell id="gPxFWxlJRxJoS_Nw_sLM-27" style="edgeStyle=orthogonalEdgeStyle;rounded=0;orthogonalLoop=1;jettySize=auto;html=1;exitX=0.5;exitY=1;exitDx=0;exitDy=0;entryX=0.5;entryY=0;entryDx=0;entryDy=0;" parent="WIyWlLk6GJQsqaUBKTNV-1" source="FX12IVZ7UqzFeH-IZBvV-46" target="gPxFWxlJRxJoS_Nw_sLM-0" edge="1">
          <mxGeometry relative="1" as="geometry" />
        </mxCell>
        <mxCell id="FX12IVZ7UqzFeH-IZBvV-46" value="Send out first set of approvals to faculty (everyone except Associate Dean for Student Affairs)&amp;nbsp;" style="whiteSpace=wrap;html=1;rounded=1;" parent="WIyWlLk6GJQsqaUBKTNV-1" vertex="1">
          <mxGeometry x="259.38" y="650" width="330" height="40" as="geometry" />
        </mxCell>
        <mxCell id="gPxFWxlJRxJoS_Nw_sLM-25" style="edgeStyle=orthogonalEdgeStyle;rounded=0;orthogonalLoop=1;jettySize=auto;html=1;exitX=0.5;exitY=1;exitDx=0;exitDy=0;entryX=0.5;entryY=0;entryDx=0;entryDy=0;" parent="WIyWlLk6GJQsqaUBKTNV-1" source="FX12IVZ7UqzFeH-IZBvV-48" target="gPxFWxlJRxJoS_Nw_sLM-12" edge="1">
          <mxGeometry relative="1" as="geometry" />
        </mxCell>
        <mxCell id="FX12IVZ7UqzFeH-IZBvV-48" value="If everyone approves" style="whiteSpace=wrap;html=1;rounded=1;" parent="WIyWlLk6GJQsqaUBKTNV-1" vertex="1">
          <mxGeometry x="200" y="790" width="151" height="40" as="geometry" />
        </mxCell>
        <mxCell id="FX12IVZ7UqzFeH-IZBvV-56" style="edgeStyle=elbowEdgeStyle;orthogonalLoop=1;jettySize=auto;elbow=vertical;html=1;exitX=0.5;exitY=1;exitDx=0;exitDy=0;entryX=0.5;entryY=0;entryDx=0;entryDy=0;" parent="WIyWlLk6GJQsqaUBKTNV-1" source="FX12IVZ7UqzFeH-IZBvV-53" target="FX12IVZ7UqzFeH-IZBvV-55" edge="1">
          <mxGeometry relative="1" as="geometry" />
        </mxCell>
        <mxCell id="FX12IVZ7UqzFeH-IZBvV-53" value="One person denies" style="whiteSpace=wrap;html=1;rounded=1;" parent="WIyWlLk6GJQsqaUBKTNV-1" vertex="1">
          <mxGeometry x="480" y="790" width="151" height="40" as="geometry" />
        </mxCell>
        <mxCell id="gPxFWxlJRxJoS_Nw_sLM-3" style="edgeStyle=orthogonalEdgeStyle;orthogonalLoop=1;jettySize=auto;html=1;exitX=0.5;exitY=1;exitDx=0;exitDy=0;entryX=0.5;entryY=0;entryDx=0;entryDy=0;" parent="WIyWlLk6GJQsqaUBKTNV-1" source="FX12IVZ7UqzFeH-IZBvV-55" target="gPxFWxlJRxJoS_Nw_sLM-2" edge="1">
          <mxGeometry relative="1" as="geometry" />
        </mxCell>
        <mxCell id="FX12IVZ7UqzFeH-IZBvV-55" value="Send denial email to faculty and student" style="whiteSpace=wrap;html=1;rounded=1;" parent="WIyWlLk6GJQsqaUBKTNV-1" vertex="1">
          <mxGeometry x="435.5" y="850" width="240" height="40" as="geometry" />
        </mxCell>
        <mxCell id="FX12IVZ7UqzFeH-IZBvV-101" style="edgeStyle=elbowEdgeStyle;orthogonalLoop=1;jettySize=auto;elbow=vertical;html=1;exitX=0.5;exitY=1;exitDx=0;exitDy=0;entryX=0.5;entryY=0;entryDx=0;entryDy=0;" parent="WIyWlLk6GJQsqaUBKTNV-1" source="FX12IVZ7UqzFeH-IZBvV-57" target="FX12IVZ7UqzFeH-IZBvV-59" edge="1">
          <mxGeometry relative="1" as="geometry" />
        </mxCell>
        <mxCell id="FX12IVZ7UqzFeH-IZBvV-57" value="Update document with approval signatures" style="whiteSpace=wrap;html=1;rounded=1;" parent="WIyWlLk6GJQsqaUBKTNV-1" vertex="1">
          <mxGeometry x="151" y="910" width="250" height="40" as="geometry" />
        </mxCell>
        <mxCell id="FX12IVZ7UqzFeH-IZBvV-58" style="edgeStyle=elbowEdgeStyle;orthogonalLoop=1;jettySize=auto;html=1;exitX=0.5;exitY=1;exitDx=0;exitDy=0;entryX=0.5;entryY=0;entryDx=0;entryDy=0;" parent="WIyWlLk6GJQsqaUBKTNV-1" source="FX12IVZ7UqzFeH-IZBvV-59" target="FX12IVZ7UqzFeH-IZBvV-60" edge="1">
          <mxGeometry relative="1" as="geometry" />
        </mxCell>
        <mxCell id="FX12IVZ7UqzFeH-IZBvV-59" value="Create file on SharePoint with populated document" style="whiteSpace=wrap;html=1;rounded=1;" parent="WIyWlLk6GJQsqaUBKTNV-1" vertex="1">
          <mxGeometry x="132.5" y="970" width="288" height="40" as="geometry" />
        </mxCell>
        <mxCell id="gPxFWxlJRxJoS_Nw_sLM-24" style="edgeStyle=orthogonalEdgeStyle;rounded=0;orthogonalLoop=1;jettySize=auto;html=1;exitX=0.5;exitY=1;exitDx=0;exitDy=0;entryX=0.5;entryY=0;entryDx=0;entryDy=0;" parent="WIyWlLk6GJQsqaUBKTNV-1" source="FX12IVZ7UqzFeH-IZBvV-60" target="FX12IVZ7UqzFeH-IZBvV-64" edge="1">
          <mxGeometry relative="1" as="geometry" />
        </mxCell>
        <mxCell id="FX12IVZ7UqzFeH-IZBvV-60" value="Create sharing link for file" style="whiteSpace=wrap;html=1;rounded=1;" parent="WIyWlLk6GJQsqaUBKTNV-1" vertex="1">
          <mxGeometry x="193.45" y="1030" width="170" height="40" as="geometry" />
        </mxCell>
        <mxCell id="gPxFWxlJRxJoS_Nw_sLM-23" style="edgeStyle=orthogonalEdgeStyle;rounded=0;orthogonalLoop=1;jettySize=auto;html=1;exitX=0.5;exitY=1;exitDx=0;exitDy=0;entryX=0.5;entryY=0;entryDx=0;entryDy=0;" parent="WIyWlLk6GJQsqaUBKTNV-1" source="FX12IVZ7UqzFeH-IZBvV-64" target="gPxFWxlJRxJoS_Nw_sLM-13" edge="1">
          <mxGeometry relative="1" as="geometry" />
        </mxCell>
        <mxCell id="FX12IVZ7UqzFeH-IZBvV-64" value="Send out approvals phase 2: Associate Dean for Student Affairs approval" style="whiteSpace=wrap;html=1;rounded=1;" parent="WIyWlLk6GJQsqaUBKTNV-1" vertex="1">
          <mxGeometry x="138.7" y="1090" width="290" height="40" as="geometry" />
        </mxCell>
        <mxCell id="gPxFWxlJRxJoS_Nw_sLM-14" style="edgeStyle=orthogonalEdgeStyle;rounded=0;orthogonalLoop=1;jettySize=auto;html=1;exitX=0.5;exitY=1;exitDx=0;exitDy=0;entryX=0.5;entryY=0;entryDx=0;entryDy=0;" parent="WIyWlLk6GJQsqaUBKTNV-1" source="FX12IVZ7UqzFeH-IZBvV-65" target="FX12IVZ7UqzFeH-IZBvV-71" edge="1">
          <mxGeometry relative="1" as="geometry" />
        </mxCell>
        <mxCell id="FX12IVZ7UqzFeH-IZBvV-65" value="If associate dean approves" style="whiteSpace=wrap;html=1;rounded=1;" parent="WIyWlLk6GJQsqaUBKTNV-1" vertex="1">
          <mxGeometry x="32.480000000000004" y="1240" width="173.45" height="40" as="geometry" />
        </mxCell>
        <mxCell id="FX12IVZ7UqzFeH-IZBvV-107" style="edgeStyle=elbowEdgeStyle;orthogonalLoop=1;jettySize=auto;elbow=vertical;html=1;exitX=0.5;exitY=1;exitDx=0;exitDy=0;entryX=0.423;entryY=-0.02;entryDx=0;entryDy=0;entryPerimeter=0;" parent="WIyWlLk6GJQsqaUBKTNV-1" source="FX12IVZ7UqzFeH-IZBvV-66" target="FX12IVZ7UqzFeH-IZBvV-81" edge="1">
          <mxGeometry relative="1" as="geometry" />
        </mxCell>
        <mxCell id="FX12IVZ7UqzFeH-IZBvV-66" value="If associate dean denies" style="whiteSpace=wrap;html=1;rounded=1;" parent="WIyWlLk6GJQsqaUBKTNV-1" vertex="1">
          <mxGeometry x="394.01" y="1240" width="151" height="40" as="geometry" />
        </mxCell>
        <mxCell id="FX12IVZ7UqzFeH-IZBvV-67" style="edgeStyle=elbowEdgeStyle;orthogonalLoop=1;jettySize=auto;elbow=vertical;html=1;exitX=0.5;exitY=1;exitDx=0;exitDy=0;" parent="WIyWlLk6GJQsqaUBKTNV-1" source="FX12IVZ7UqzFeH-IZBvV-66" target="FX12IVZ7UqzFeH-IZBvV-66" edge="1">
          <mxGeometry relative="1" as="geometry" />
        </mxCell>
        <mxCell id="FX12IVZ7UqzFeH-IZBvV-108" style="edgeStyle=elbowEdgeStyle;orthogonalLoop=1;jettySize=auto;elbow=vertical;html=1;exitX=0.5;exitY=1;exitDx=0;exitDy=0;entryX=0.5;entryY=0;entryDx=0;entryDy=0;" parent="WIyWlLk6GJQsqaUBKTNV-1" source="FX12IVZ7UqzFeH-IZBvV-71" target="FX12IVZ7UqzFeH-IZBvV-85" edge="1">
          <mxGeometry relative="1" as="geometry" />
        </mxCell>
        <mxCell id="FX12IVZ7UqzFeH-IZBvV-71" value="" style="whiteSpace=wrap;html=1;rounded=1;" parent="WIyWlLk6GJQsqaUBKTNV-1" vertex="1">
          <mxGeometry x="-27.300000000000004" y="1309" width="290.5" height="100" as="geometry" />
        </mxCell>
        <mxCell id="FX12IVZ7UqzFeH-IZBvV-72" value="Get output from approval responses" style="whiteSpace=wrap;html=1;rounded=1;" parent="WIyWlLk6GJQsqaUBKTNV-1" vertex="1">
          <mxGeometry x="13.7" y="1319" width="211" height="30" as="geometry" />
        </mxCell>
        <mxCell id="FX12IVZ7UqzFeH-IZBvV-73" value="Get comments from responses" style="whiteSpace=wrap;html=1;rounded=1;" parent="WIyWlLk6GJQsqaUBKTNV-1" vertex="1">
          <mxGeometry x="19.7" y="1359" width="199" height="40" as="geometry" />
        </mxCell>
        <mxCell id="FX12IVZ7UqzFeH-IZBvV-74" value="" style="html=1;verticalLabelPosition=bottom;align=center;verticalAlign=top;strokeWidth=2;shadow=0;dashed=0;shape=mxgraph.ios7.icons.repeat;pointerEvents=1;rounded=1;" parent="WIyWlLk6GJQsqaUBKTNV-1" vertex="1">
          <mxGeometry x="-18.300000000000004" y="1319" width="21" height="20" as="geometry" />
        </mxCell>
        <mxCell id="FX12IVZ7UqzFeH-IZBvV-117" style="edgeStyle=elbowEdgeStyle;orthogonalLoop=1;jettySize=auto;elbow=vertical;html=1;exitX=0.5;exitY=1;exitDx=0;exitDy=0;entryX=0.5;entryY=0;entryDx=0;entryDy=0;" parent="WIyWlLk6GJQsqaUBKTNV-1" source="FX12IVZ7UqzFeH-IZBvV-81" target="FX12IVZ7UqzFeH-IZBvV-91" edge="1">
          <mxGeometry relative="1" as="geometry" />
        </mxCell>
        <mxCell id="FX12IVZ7UqzFeH-IZBvV-81" value="" style="whiteSpace=wrap;html=1;rounded=1;" parent="WIyWlLk6GJQsqaUBKTNV-1" vertex="1">
          <mxGeometry x="347.01" y="1310" width="290.5" height="100" as="geometry" />
        </mxCell>
        <mxCell id="FX12IVZ7UqzFeH-IZBvV-82" value="Get output from denial responses" style="whiteSpace=wrap;html=1;rounded=1;" parent="WIyWlLk6GJQsqaUBKTNV-1" vertex="1">
          <mxGeometry x="388.01" y="1320" width="211" height="30" as="geometry" />
        </mxCell>
        <mxCell id="FX12IVZ7UqzFeH-IZBvV-83" value="Get comments from responses" style="whiteSpace=wrap;html=1;rounded=1;" parent="WIyWlLk6GJQsqaUBKTNV-1" vertex="1">
          <mxGeometry x="394.01" y="1360" width="199" height="40" as="geometry" />
        </mxCell>
        <mxCell id="FX12IVZ7UqzFeH-IZBvV-84" value="" style="html=1;verticalLabelPosition=bottom;align=center;verticalAlign=top;strokeWidth=2;shadow=0;dashed=0;shape=mxgraph.ios7.icons.repeat;pointerEvents=1;rounded=1;" parent="WIyWlLk6GJQsqaUBKTNV-1" vertex="1">
          <mxGeometry x="359.21" y="1370" width="21" height="20" as="geometry" />
        </mxCell>
        <mxCell id="FX12IVZ7UqzFeH-IZBvV-109" style="edgeStyle=elbowEdgeStyle;orthogonalLoop=1;jettySize=auto;elbow=vertical;html=1;exitX=0.5;exitY=1;exitDx=0;exitDy=0;entryX=0.5;entryY=0;entryDx=0;entryDy=0;" parent="WIyWlLk6GJQsqaUBKTNV-1" source="FX12IVZ7UqzFeH-IZBvV-85" target="FX12IVZ7UqzFeH-IZBvV-89" edge="1">
          <mxGeometry relative="1" as="geometry" />
        </mxCell>
        <mxCell id="FX12IVZ7UqzFeH-IZBvV-85" value="Update document with approval signature and comments&amp;nbsp;" style="whiteSpace=wrap;html=1;rounded=1;" parent="WIyWlLk6GJQsqaUBKTNV-1" vertex="1">
          <mxGeometry x="-41.800000000000004" y="1429" width="319.5" height="40" as="geometry" />
        </mxCell>
        <mxCell id="FX12IVZ7UqzFeH-IZBvV-111" style="edgeStyle=elbowEdgeStyle;orthogonalLoop=1;jettySize=auto;elbow=vertical;html=1;exitX=0.5;exitY=1;exitDx=0;exitDy=0;entryX=0.5;entryY=0;entryDx=0;entryDy=0;" parent="WIyWlLk6GJQsqaUBKTNV-1" source="FX12IVZ7UqzFeH-IZBvV-87" target="FX12IVZ7UqzFeH-IZBvV-88" edge="1">
          <mxGeometry relative="1" as="geometry" />
        </mxCell>
        <mxCell id="FX12IVZ7UqzFeH-IZBvV-87" value="Create sharing link for file" style="whiteSpace=wrap;html=1;rounded=1;" parent="WIyWlLk6GJQsqaUBKTNV-1" vertex="1">
          <mxGeometry x="33.7" y="1549" width="170" height="40" as="geometry" />
        </mxCell>
        <mxCell id="gPxFWxlJRxJoS_Nw_sLM-20" style="edgeStyle=orthogonalEdgeStyle;rounded=0;orthogonalLoop=1;jettySize=auto;html=1;exitX=0.5;exitY=1;exitDx=0;exitDy=0;entryX=0.5;entryY=0;entryDx=0;entryDy=0;" parent="WIyWlLk6GJQsqaUBKTNV-1" source="FX12IVZ7UqzFeH-IZBvV-88" target="gPxFWxlJRxJoS_Nw_sLM-15" edge="1">
          <mxGeometry relative="1" as="geometry" />
        </mxCell>
        <mxCell id="FX12IVZ7UqzFeH-IZBvV-88" value="Send out for final approval to student" style="whiteSpace=wrap;html=1;rounded=1;" parent="WIyWlLk6GJQsqaUBKTNV-1" vertex="1">
          <mxGeometry x="31.57" y="1609" width="174.25" height="40" as="geometry" />
        </mxCell>
        <mxCell id="FX12IVZ7UqzFeH-IZBvV-110" style="edgeStyle=elbowEdgeStyle;orthogonalLoop=1;jettySize=auto;elbow=vertical;html=1;exitX=0.5;exitY=1;exitDx=0;exitDy=0;entryX=0.5;entryY=0;entryDx=0;entryDy=0;" parent="WIyWlLk6GJQsqaUBKTNV-1" source="FX12IVZ7UqzFeH-IZBvV-89" target="FX12IVZ7UqzFeH-IZBvV-87" edge="1">
          <mxGeometry relative="1" as="geometry" />
        </mxCell>
        <mxCell id="FX12IVZ7UqzFeH-IZBvV-89" value="Create file on SharePoint with populated document" style="whiteSpace=wrap;html=1;rounded=1;" parent="WIyWlLk6GJQsqaUBKTNV-1" vertex="1">
          <mxGeometry x="-26.050000000000004" y="1489" width="288" height="40" as="geometry" />
        </mxCell>
        <mxCell id="FX12IVZ7UqzFeH-IZBvV-115" style="edgeStyle=elbowEdgeStyle;orthogonalLoop=1;jettySize=auto;elbow=vertical;html=1;exitX=0.5;exitY=1;exitDx=0;exitDy=0;entryX=0.5;entryY=0;entryDx=0;entryDy=0;" parent="WIyWlLk6GJQsqaUBKTNV-1" source="FX12IVZ7UqzFeH-IZBvV-91" target="FX12IVZ7UqzFeH-IZBvV-93" edge="1">
          <mxGeometry relative="1" as="geometry" />
        </mxCell>
        <mxCell id="FX12IVZ7UqzFeH-IZBvV-91" value="Update document with denied signature and comments&amp;nbsp;" style="whiteSpace=wrap;html=1;rounded=1;" parent="WIyWlLk6GJQsqaUBKTNV-1" vertex="1">
          <mxGeometry x="332.51" y="1430" width="319.5" height="40" as="geometry" />
        </mxCell>
        <mxCell id="FX12IVZ7UqzFeH-IZBvV-113" style="edgeStyle=elbowEdgeStyle;orthogonalLoop=1;jettySize=auto;elbow=vertical;html=1;exitX=0.5;exitY=1;exitDx=0;exitDy=0;entryX=0.5;entryY=0;entryDx=0;entryDy=0;" parent="WIyWlLk6GJQsqaUBKTNV-1" source="FX12IVZ7UqzFeH-IZBvV-92" target="FX12IVZ7UqzFeH-IZBvV-94" edge="1">
          <mxGeometry relative="1" as="geometry" />
        </mxCell>
        <mxCell id="FX12IVZ7UqzFeH-IZBvV-92" value="Create sharing link for file" style="whiteSpace=wrap;html=1;rounded=1;" parent="WIyWlLk6GJQsqaUBKTNV-1" vertex="1">
          <mxGeometry x="407.26" y="1550" width="170" height="40" as="geometry" />
        </mxCell>
        <mxCell id="FX12IVZ7UqzFeH-IZBvV-114" style="edgeStyle=elbowEdgeStyle;orthogonalLoop=1;jettySize=auto;elbow=vertical;html=1;exitX=0.5;exitY=1;exitDx=0;exitDy=0;entryX=0.5;entryY=0;entryDx=0;entryDy=0;" parent="WIyWlLk6GJQsqaUBKTNV-1" source="FX12IVZ7UqzFeH-IZBvV-93" target="FX12IVZ7UqzFeH-IZBvV-92" edge="1">
          <mxGeometry relative="1" as="geometry" />
        </mxCell>
        <mxCell id="FX12IVZ7UqzFeH-IZBvV-93" value="Create file on SharePoint with populated document" style="whiteSpace=wrap;html=1;rounded=1;" parent="WIyWlLk6GJQsqaUBKTNV-1" vertex="1">
          <mxGeometry x="348.26" y="1490" width="288" height="40" as="geometry" />
        </mxCell>
        <mxCell id="FX12IVZ7UqzFeH-IZBvV-112" style="edgeStyle=elbowEdgeStyle;orthogonalLoop=1;jettySize=auto;elbow=vertical;html=1;exitX=0.5;exitY=1;exitDx=0;exitDy=0;entryX=0.5;entryY=0;entryDx=0;entryDy=0;" parent="WIyWlLk6GJQsqaUBKTNV-1" source="FX12IVZ7UqzFeH-IZBvV-94" target="FX12IVZ7UqzFeH-IZBvV-95" edge="1">
          <mxGeometry relative="1" as="geometry" />
        </mxCell>
        <mxCell id="FX12IVZ7UqzFeH-IZBvV-94" value="Send email containing link to declined file to faculty, associate dean, and student" style="whiteSpace=wrap;html=1;rounded=1;" parent="WIyWlLk6GJQsqaUBKTNV-1" vertex="1">
          <mxGeometry x="364.14" y="1610" width="256.25" height="60" as="geometry" />
        </mxCell>
        <mxCell id="FX12IVZ7UqzFeH-IZBvV-95" value="Flow ends" style="whiteSpace=wrap;html=1;rounded=1;" parent="WIyWlLk6GJQsqaUBKTNV-1" vertex="1">
          <mxGeometry x="439.02" y="1690" width="106.5" height="40" as="geometry" />
        </mxCell>
        <mxCell id="FX12IVZ7UqzFeH-IZBvV-137" style="edgeStyle=elbowEdgeStyle;orthogonalLoop=1;jettySize=auto;elbow=vertical;html=1;exitX=0.5;exitY=1;exitDx=0;exitDy=0;entryX=0.5;entryY=0;entryDx=0;entryDy=0;" parent="WIyWlLk6GJQsqaUBKTNV-1" source="FX12IVZ7UqzFeH-IZBvV-120" edge="1">
          <mxGeometry relative="1" as="geometry">
            <mxPoint x="-50.390000000000185" y="1810" as="targetPoint" />
          </mxGeometry>
        </mxCell>
        <mxCell id="FX12IVZ7UqzFeH-IZBvV-120" value="If person approves" style="whiteSpace=wrap;html=1;rounded=1;" parent="WIyWlLk6GJQsqaUBKTNV-1" vertex="1">
          <mxGeometry x="-125.89000000000001" y="1750" width="151" height="40" as="geometry" />
        </mxCell>
        <mxCell id="FX12IVZ7UqzFeH-IZBvV-141" style="edgeStyle=elbowEdgeStyle;orthogonalLoop=1;jettySize=auto;elbow=vertical;html=1;exitX=0.5;exitY=1;exitDx=0;exitDy=0;entryX=0.5;entryY=0;entryDx=0;entryDy=0;" parent="WIyWlLk6GJQsqaUBKTNV-1" source="FX12IVZ7UqzFeH-IZBvV-121" target="FX12IVZ7UqzFeH-IZBvV-140" edge="1">
          <mxGeometry relative="1" as="geometry" />
        </mxCell>
        <mxCell id="FX12IVZ7UqzFeH-IZBvV-121" value="Person denies" style="whiteSpace=wrap;html=1;rounded=1;" parent="WIyWlLk6GJQsqaUBKTNV-1" vertex="1">
          <mxGeometry x="207.35" y="1750" width="151" height="40" as="geometry" />
        </mxCell>
        <mxCell id="FX12IVZ7UqzFeH-IZBvV-122" style="edgeStyle=elbowEdgeStyle;orthogonalLoop=1;jettySize=auto;elbow=vertical;html=1;exitX=0.5;exitY=1;exitDx=0;exitDy=0;" parent="WIyWlLk6GJQsqaUBKTNV-1" source="FX12IVZ7UqzFeH-IZBvV-121" target="FX12IVZ7UqzFeH-IZBvV-121" edge="1">
          <mxGeometry relative="1" as="geometry" />
        </mxCell>
        <mxCell id="FX12IVZ7UqzFeH-IZBvV-123" style="edgeStyle=elbowEdgeStyle;orthogonalLoop=1;jettySize=auto;elbow=vertical;html=1;exitX=0.75;exitY=1;exitDx=0;exitDy=0;" parent="WIyWlLk6GJQsqaUBKTNV-1" source="FX12IVZ7UqzFeH-IZBvV-120" target="FX12IVZ7UqzFeH-IZBvV-120" edge="1">
          <mxGeometry relative="1" as="geometry" />
        </mxCell>
        <mxCell id="gPxFWxlJRxJoS_Nw_sLM-16" style="edgeStyle=orthogonalEdgeStyle;rounded=0;orthogonalLoop=1;jettySize=auto;html=1;exitX=0.5;exitY=1;exitDx=0;exitDy=0;entryX=0.5;entryY=0;entryDx=0;entryDy=0;" parent="WIyWlLk6GJQsqaUBKTNV-1" source="FX12IVZ7UqzFeH-IZBvV-125" target="FX12IVZ7UqzFeH-IZBvV-128" edge="1">
          <mxGeometry relative="1" as="geometry" />
        </mxCell>
        <mxCell id="FX12IVZ7UqzFeH-IZBvV-125" value="Update document with approval signature and comments&amp;nbsp;" style="whiteSpace=wrap;html=1;rounded=1;" parent="WIyWlLk6GJQsqaUBKTNV-1" vertex="1">
          <mxGeometry x="-209.39000000000001" y="1810" width="319.5" height="40" as="geometry" />
        </mxCell>
        <mxCell id="FX12IVZ7UqzFeH-IZBvV-138" style="edgeStyle=elbowEdgeStyle;orthogonalLoop=1;jettySize=auto;elbow=vertical;html=1;exitX=0.5;exitY=1;exitDx=0;exitDy=0;entryX=0.5;entryY=0;entryDx=0;entryDy=0;" parent="WIyWlLk6GJQsqaUBKTNV-1" source="FX12IVZ7UqzFeH-IZBvV-126" target="FX12IVZ7UqzFeH-IZBvV-131" edge="1">
          <mxGeometry relative="1" as="geometry" />
        </mxCell>
        <mxCell id="FX12IVZ7UqzFeH-IZBvV-126" value="Create sharing link for file" style="whiteSpace=wrap;html=1;rounded=1;" parent="WIyWlLk6GJQsqaUBKTNV-1" vertex="1">
          <mxGeometry x="-134.64000000000001" y="1930" width="170" height="40" as="geometry" />
        </mxCell>
        <mxCell id="gPxFWxlJRxJoS_Nw_sLM-17" style="edgeStyle=orthogonalEdgeStyle;rounded=0;orthogonalLoop=1;jettySize=auto;html=1;exitX=0.5;exitY=1;exitDx=0;exitDy=0;entryX=0.5;entryY=0;entryDx=0;entryDy=0;" parent="WIyWlLk6GJQsqaUBKTNV-1" source="FX12IVZ7UqzFeH-IZBvV-128" target="FX12IVZ7UqzFeH-IZBvV-126" edge="1">
          <mxGeometry relative="1" as="geometry" />
        </mxCell>
        <mxCell id="FX12IVZ7UqzFeH-IZBvV-128" value="Create file on SharePoint with populated document" style="whiteSpace=wrap;html=1;rounded=1;" parent="WIyWlLk6GJQsqaUBKTNV-1" vertex="1">
          <mxGeometry x="-193.64000000000001" y="1870" width="288" height="40" as="geometry" />
        </mxCell>
        <mxCell id="FX12IVZ7UqzFeH-IZBvV-139" style="edgeStyle=elbowEdgeStyle;orthogonalLoop=1;jettySize=auto;elbow=vertical;html=1;exitX=0.5;exitY=1;exitDx=0;exitDy=0;entryX=0.5;entryY=0;entryDx=0;entryDy=0;" parent="WIyWlLk6GJQsqaUBKTNV-1" source="FX12IVZ7UqzFeH-IZBvV-131" target="FX12IVZ7UqzFeH-IZBvV-132" edge="1">
          <mxGeometry relative="1" as="geometry" />
        </mxCell>
        <mxCell id="FX12IVZ7UqzFeH-IZBvV-131" value="Send email containing link to finalized and signed approved form to form keeper" style="whiteSpace=wrap;html=1;rounded=1;" parent="WIyWlLk6GJQsqaUBKTNV-1" vertex="1">
          <mxGeometry x="-178.52" y="1990" width="256.25" height="60" as="geometry" />
        </mxCell>
        <mxCell id="FX12IVZ7UqzFeH-IZBvV-132" value="Flow ends" style="whiteSpace=wrap;html=1;rounded=1;" parent="WIyWlLk6GJQsqaUBKTNV-1" vertex="1">
          <mxGeometry x="-103.64000000000001" y="2070" width="106.5" height="40" as="geometry" />
        </mxCell>
        <mxCell id="gPxFWxlJRxJoS_Nw_sLM-5" style="edgeStyle=orthogonalEdgeStyle;orthogonalLoop=1;jettySize=auto;html=1;exitX=0.5;exitY=1;exitDx=0;exitDy=0;entryX=0.5;entryY=0;entryDx=0;entryDy=0;" parent="WIyWlLk6GJQsqaUBKTNV-1" source="FX12IVZ7UqzFeH-IZBvV-140" target="gPxFWxlJRxJoS_Nw_sLM-4" edge="1">
          <mxGeometry relative="1" as="geometry" />
        </mxCell>
        <mxCell id="FX12IVZ7UqzFeH-IZBvV-140" value="Send email containing link to file on Sharepoint to faculty, associate dean, and student" style="whiteSpace=wrap;html=1;rounded=1;" parent="WIyWlLk6GJQsqaUBKTNV-1" vertex="1">
          <mxGeometry x="148.54" y="1810" width="268.62" height="60" as="geometry" />
        </mxCell>
        <mxCell id="FX12IVZ7UqzFeH-IZBvV-145" style="edgeStyle=elbowEdgeStyle;orthogonalLoop=1;jettySize=auto;elbow=vertical;html=1;exitX=0.5;exitY=1;exitDx=0;exitDy=0;entryX=0.5;entryY=0;entryDx=0;entryDy=0;" parent="WIyWlLk6GJQsqaUBKTNV-1" source="FX12IVZ7UqzFeH-IZBvV-142" target="FX12IVZ7UqzFeH-IZBvV-13" edge="1">
          <mxGeometry relative="1" as="geometry" />
        </mxCell>
        <mxCell id="FX12IVZ7UqzFeH-IZBvV-142" value="Get user profile for student" style="whiteSpace=wrap;html=1;rounded=1;" parent="WIyWlLk6GJQsqaUBKTNV-1" vertex="1">
          <mxGeometry x="332.38" y="130" width="162" height="30" as="geometry" />
        </mxCell>
        <mxCell id="gPxFWxlJRxJoS_Nw_sLM-28" style="edgeStyle=orthogonalEdgeStyle;rounded=0;orthogonalLoop=1;jettySize=auto;html=1;exitX=0.5;exitY=1;exitDx=0;exitDy=0;entryX=0.5;entryY=0;entryDx=0;entryDy=0;" parent="WIyWlLk6GJQsqaUBKTNV-1" source="gPxFWxlJRxJoS_Nw_sLM-0" target="FX12IVZ7UqzFeH-IZBvV-48" edge="1">
          <mxGeometry relative="1" as="geometry" />
        </mxCell>
        <mxCell id="gPxFWxlJRxJoS_Nw_sLM-29" style="edgeStyle=orthogonalEdgeStyle;rounded=0;orthogonalLoop=1;jettySize=auto;html=1;exitX=0.5;exitY=1;exitDx=0;exitDy=0;entryX=0.5;entryY=0;entryDx=0;entryDy=0;" parent="WIyWlLk6GJQsqaUBKTNV-1" source="gPxFWxlJRxJoS_Nw_sLM-0" target="FX12IVZ7UqzFeH-IZBvV-53" edge="1">
          <mxGeometry relative="1" as="geometry" />
        </mxCell>
        <mxCell id="gPxFWxlJRxJoS_Nw_sLM-0" value="Capture the response information of each faculty member." style="whiteSpace=wrap;html=1;strokeWidth=1;rounded=1;" parent="WIyWlLk6GJQsqaUBKTNV-1" vertex="1">
          <mxGeometry x="259.38" y="710" width="330.62" height="40" as="geometry" />
        </mxCell>
        <mxCell id="gPxFWxlJRxJoS_Nw_sLM-2" value="Flow ends" style="whiteSpace=wrap;html=1;rounded=1;" parent="WIyWlLk6GJQsqaUBKTNV-1" vertex="1">
          <mxGeometry x="480" y="910" width="151" height="40" as="geometry" />
        </mxCell>
        <mxCell id="gPxFWxlJRxJoS_Nw_sLM-4" value="Flow ends" style="whiteSpace=wrap;html=1;rounded=1;" parent="WIyWlLk6GJQsqaUBKTNV-1" vertex="1">
          <mxGeometry x="230.85" y="1890" width="106.5" height="40" as="geometry" />
        </mxCell>
        <mxCell id="gPxFWxlJRxJoS_Nw_sLM-31" style="edgeStyle=orthogonalEdgeStyle;rounded=0;orthogonalLoop=1;jettySize=auto;html=1;exitX=0.5;exitY=1;exitDx=0;exitDy=0;entryX=0.471;entryY=0.037;entryDx=0;entryDy=0;entryPerimeter=0;" parent="WIyWlLk6GJQsqaUBKTNV-1" source="gPxFWxlJRxJoS_Nw_sLM-6" target="gPxFWxlJRxJoS_Nw_sLM-11" edge="1">
          <mxGeometry relative="1" as="geometry" />
        </mxCell>
        <mxCell id="gPxFWxlJRxJoS_Nw_sLM-6" value="Convert time zone" style="whiteSpace=wrap;html=1;rounded=1;" parent="WIyWlLk6GJQsqaUBKTNV-1" vertex="1">
          <mxGeometry x="328.76" y="-100" width="150" height="30" as="geometry" />
        </mxCell>
        <mxCell id="gPxFWxlJRxJoS_Nw_sLM-33" style="edgeStyle=orthogonalEdgeStyle;rounded=0;orthogonalLoop=1;jettySize=auto;html=1;exitX=0.5;exitY=1;exitDx=0;exitDy=0;entryX=0.5;entryY=0;entryDx=0;entryDy=0;" parent="WIyWlLk6GJQsqaUBKTNV-1" source="gPxFWxlJRxJoS_Nw_sLM-7" target="gPxFWxlJRxJoS_Nw_sLM-8" edge="1">
          <mxGeometry relative="1" as="geometry" />
        </mxCell>
        <mxCell id="gPxFWxlJRxJoS_Nw_sLM-7" value="Initialize new submission time variable for file" style="whiteSpace=wrap;html=1;rounded=1;" parent="WIyWlLk6GJQsqaUBKTNV-1" vertex="1">
          <mxGeometry x="280.51" y="10" width="261.49" height="40" as="geometry" />
        </mxCell>
        <mxCell id="gPxFWxlJRxJoS_Nw_sLM-34" style="edgeStyle=orthogonalEdgeStyle;rounded=0;orthogonalLoop=1;jettySize=auto;html=1;exitX=0.5;exitY=1;exitDx=0;exitDy=0;entryX=0.5;entryY=0;entryDx=0;entryDy=0;" parent="WIyWlLk6GJQsqaUBKTNV-1" source="gPxFWxlJRxJoS_Nw_sLM-8" target="FX12IVZ7UqzFeH-IZBvV-142" edge="1">
          <mxGeometry relative="1" as="geometry" />
        </mxCell>
        <mxCell id="gPxFWxlJRxJoS_Nw_sLM-8" value="Set submission time to desired format" style="whiteSpace=wrap;html=1;rounded=1;" parent="WIyWlLk6GJQsqaUBKTNV-1" vertex="1">
          <mxGeometry x="297.89" y="70" width="232.24" height="40" as="geometry" />
        </mxCell>
        <mxCell id="gPxFWxlJRxJoS_Nw_sLM-32" style="edgeStyle=orthogonalEdgeStyle;rounded=0;orthogonalLoop=1;jettySize=auto;html=1;exitX=0.5;exitY=1;exitDx=0;exitDy=0;entryX=0.5;entryY=0;entryDx=0;entryDy=0;" parent="WIyWlLk6GJQsqaUBKTNV-1" source="gPxFWxlJRxJoS_Nw_sLM-11" target="gPxFWxlJRxJoS_Nw_sLM-7" edge="1">
          <mxGeometry relative="1" as="geometry" />
        </mxCell>
        <mxCell id="gPxFWxlJRxJoS_Nw_sLM-11" value="Convert date format for uniformity to m-dd-yyyy [d]" style="whiteSpace=wrap;html=1;rounded=1;" parent="WIyWlLk6GJQsqaUBKTNV-1" vertex="1">
          <mxGeometry x="264" y="-50" width="300" height="40" as="geometry" />
        </mxCell>
        <mxCell id="gPxFWxlJRxJoS_Nw_sLM-26" style="edgeStyle=orthogonalEdgeStyle;rounded=0;orthogonalLoop=1;jettySize=auto;html=1;exitX=0.5;exitY=1;exitDx=0;exitDy=0;entryX=0.5;entryY=0;entryDx=0;entryDy=0;" parent="WIyWlLk6GJQsqaUBKTNV-1" source="gPxFWxlJRxJoS_Nw_sLM-12" target="FX12IVZ7UqzFeH-IZBvV-57" edge="1">
          <mxGeometry relative="1" as="geometry" />
        </mxCell>
        <mxCell id="gPxFWxlJRxJoS_Nw_sLM-12" value="Convert format of signature dates" style="whiteSpace=wrap;html=1;rounded=1;" parent="WIyWlLk6GJQsqaUBKTNV-1" vertex="1">
          <mxGeometry x="172.60000000000002" y="850" width="206.8" height="40" as="geometry" />
        </mxCell>
        <mxCell id="gPxFWxlJRxJoS_Nw_sLM-21" style="edgeStyle=orthogonalEdgeStyle;rounded=0;orthogonalLoop=1;jettySize=auto;html=1;exitX=0.5;exitY=1;exitDx=0;exitDy=0;entryX=0.5;entryY=0;entryDx=0;entryDy=0;" parent="WIyWlLk6GJQsqaUBKTNV-1" source="gPxFWxlJRxJoS_Nw_sLM-13" target="FX12IVZ7UqzFeH-IZBvV-65" edge="1">
          <mxGeometry relative="1" as="geometry" />
        </mxCell>
        <mxCell id="gPxFWxlJRxJoS_Nw_sLM-22" style="edgeStyle=orthogonalEdgeStyle;rounded=0;orthogonalLoop=1;jettySize=auto;html=1;exitX=0.5;exitY=1;exitDx=0;exitDy=0;entryX=0.5;entryY=0;entryDx=0;entryDy=0;" parent="WIyWlLk6GJQsqaUBKTNV-1" source="gPxFWxlJRxJoS_Nw_sLM-13" target="FX12IVZ7UqzFeH-IZBvV-66" edge="1">
          <mxGeometry relative="1" as="geometry" />
        </mxCell>
        <mxCell id="gPxFWxlJRxJoS_Nw_sLM-13" value="Convert format of signature dates" style="whiteSpace=wrap;html=1;rounded=1;" parent="WIyWlLk6GJQsqaUBKTNV-1" vertex="1">
          <mxGeometry x="179.45000000000002" y="1150" width="206.8" height="40" as="geometry" />
        </mxCell>
        <mxCell id="gPxFWxlJRxJoS_Nw_sLM-18" style="edgeStyle=orthogonalEdgeStyle;rounded=0;orthogonalLoop=1;jettySize=auto;html=1;exitX=0.5;exitY=1;exitDx=0;exitDy=0;entryX=0.5;entryY=0;entryDx=0;entryDy=0;" parent="WIyWlLk6GJQsqaUBKTNV-1" source="gPxFWxlJRxJoS_Nw_sLM-15" target="FX12IVZ7UqzFeH-IZBvV-120" edge="1">
          <mxGeometry relative="1" as="geometry" />
        </mxCell>
        <mxCell id="gPxFWxlJRxJoS_Nw_sLM-19" style="edgeStyle=orthogonalEdgeStyle;rounded=0;orthogonalLoop=1;jettySize=auto;html=1;exitX=0.5;exitY=1;exitDx=0;exitDy=0;entryX=0.5;entryY=0;entryDx=0;entryDy=0;" parent="WIyWlLk6GJQsqaUBKTNV-1" source="gPxFWxlJRxJoS_Nw_sLM-15" target="FX12IVZ7UqzFeH-IZBvV-121" edge="1">
          <mxGeometry relative="1" as="geometry" />
        </mxCell>
        <mxCell id="gPxFWxlJRxJoS_Nw_sLM-15" value="Convert format of signature dates" style="whiteSpace=wrap;html=1;rounded=1;" parent="WIyWlLk6GJQsqaUBKTNV-1" vertex="1">
          <mxGeometry x="15.300000000000011" y="1670" width="206.8" height="40" as="geometry" />
        </mxCell>
      </root>
    </mxGraphModel>
  </diagram>
</mxfile>
